<svg width="147" height="30" viewBox="0 0 147 30" fill="none" xmlns="http://www.w3.org/2000/svg">
  <path d="M25.21 22.3C23.72 23.06 22.06 23.45 20.38 23.43C15.62 23.43 12.08 20.19 12.08 15.75C12.08 11.11 15.94 8.02 20.58 8.02C22.106 8.02311 23.6111 8.37543 24.98 9.05V13.28C23.7519 12.443 22.3148 11.9651 20.83 11.9C20.1311 11.8713 19.4374 12.0326 18.8228 12.3667C18.2082 12.7008 17.6957 13.1952 17.3397 13.7974C16.9837 14.3996 16.7976 15.087 16.8012 15.7865C16.8048 16.486 16.9979 17.1715 17.36 17.77C17.7265 18.3677 18.2485 18.8546 18.8703 19.1787C19.492 19.5028 20.1901 19.6518 20.89 19.61C22.4506 19.5794 23.9633 19.0658 25.22 18.14V22.29L25.21 22.3ZM32.63 23.43C31.4162 23.4614 30.2211 23.1269 29.2 22.47C28.6417 22.0885 28.1886 21.5724 27.8827 20.9693C27.5768 20.3663 27.428 19.6958 27.45 19.02C27.4314 18.3239 27.5862 17.6341 27.9004 17.0127C28.2146 16.3912 28.6784 15.8577 29.25 15.46C30.5025 14.7076 31.9508 14.3455 33.41 14.42C34.27 14.42 35.13 14.51 35.97 14.69V14.12C35.9879 13.8347 35.9464 13.5488 35.8483 13.2803C35.7502 13.0118 35.5976 12.7666 35.4 12.56C34.7338 12.0809 33.9174 11.8572 33.1 11.93C31.5905 11.9611 30.1112 12.3592 28.79 13.09V9.16C30.41 8.39 32.19 8 33.98 8.02C35.73 7.92 37.48 8.42 38.91 9.42C39.4878 9.92181 39.9392 10.5527 40.2276 11.2616C40.5161 11.9705 40.6333 12.7373 40.57 13.5V18.5C40.57 19.2 40.84 19.68 41.47 19.68C41.74 19.68 42 19.61 42.23 19.5V22.91C41.5403 23.2249 40.788 23.3787 40.03 23.36C39.4453 23.3904 38.8605 23.3024 38.3107 23.1013C37.7608 22.9003 37.2572 22.5903 36.83 22.19L36.78 22.2C35.5536 23.0219 34.1061 23.4509 32.63 23.43ZM34.36 17.12C33.19 17.12 32.01 17.47 32.01 18.62C32.01 19.57 32.85 20.08 33.91 20.08C34.6407 20.0653 35.3547 19.8584 35.98 19.48V17.32C35.4515 17.1806 34.9065 17.1133 34.36 17.12ZM44.61 2.86H49.18V23.1H44.61V2.86ZM52.99 2.86H57.56V23.1H52.99V2.86ZM66.77 19.95C68.04 19.95 68.79 19.63 68.79 18.82C68.79 17.68 67.13 17.78 64.9 17.22C62.1 16.53 60.44 15.36 60.44 12.94C60.44 9.84 63.24 8.06 66.92 8.06C68.86 8.05 70.79 8.45 72.58 9.23V13.08C70.8834 12.1348 68.9902 11.5973 67.05 11.51C65.85 11.51 65.12 11.88 65.12 12.55C65.12 13.58 66.72 13.58 68.92 14.08C71.75 14.78 73.47 15.85 73.47 18.39C73.47 21.63 70.61 23.4 66.81 23.4C64.8 23.4 62.81 22.99 60.97 22.17L60.93 18.25C62.7102 19.2813 64.7144 19.8647 66.77 19.95ZM85.84 22.61C84.8136 23.1594 83.6641 23.4382 82.5 23.42C81.792 23.4503 81.0852 23.3355 80.4232 23.0827C79.7611 22.8299 79.1577 22.4444 78.65 21.95C77.85 21.11 77.35 19.88 77.35 17.55V12.11H74.95V8.35H77.35V2.62H81.92V8.36H85.84V12.14H81.92V17.08C81.92 18.52 82.25 19.59 83.64 19.59C84.4081 19.5514 85.1587 19.3467 85.84 18.99V22.61ZM92.78 23.42C91.5662 23.4514 90.3711 23.1169 89.35 22.46C88.7935 22.0774 88.3424 21.5607 88.0383 20.9578C87.7342 20.3548 87.5869 19.6849 87.61 19.01C87.5914 18.3139 87.7462 17.6241 88.0604 17.0027C88.3746 16.3812 88.8384 15.8477 89.41 15.45C90.6596 14.6995 92.1041 14.3375 93.56 14.41C94.42 14.41 95.28 14.5 96.12 14.68V14.11C96.1379 13.8247 96.0964 13.5388 95.9983 13.2703C95.9002 13.0018 95.7476 12.7566 95.55 12.55C94.8838 12.0709 94.0674 11.8472 93.25 11.92C91.75 11.95 90.27 12.35 88.95 13.08V9.16C90.56 8.39 92.34 8 94.13 8.02C95.89 7.92 97.63 8.42 99.07 9.42C99.6478 9.92181 100.099 10.5527 100.388 11.2616C100.676 11.9705 100.793 12.7373 100.73 13.5V18.5C100.73 19.2 101 19.68 101.63 19.68C101.89 19.68 102.15 19.61 102.39 19.5V22.91C101.7 23.2249 100.948 23.3787 100.19 23.36C99.6053 23.3904 99.0205 23.3024 98.4707 23.1013C97.9208 22.9003 97.4172 22.5903 96.99 22.19L96.93 22.2C95.7036 23.0219 94.2561 23.4509 92.78 23.43V23.42ZM94.51 17.11C93.34 17.11 92.16 17.46 92.16 18.61C92.16 19.56 93 20.07 94.06 20.07C94.7907 20.0553 95.5047 19.8484 96.13 19.47L96.14 17.31C95.6083 17.1697 95.0599 17.1024 94.51 17.11ZM116.96 22.28C115.46 23.06 113.79 23.45 112.1 23.42C107.34 23.42 103.8 20.18 103.8 15.74C103.8 11.1 107.67 8.01 112.3 8.01C113.826 8.01311 115.331 8.36543 116.7 9.04V13.27C115.472 12.433 114.035 11.9551 112.55 11.89C111.851 11.8613 111.157 12.0226 110.543 12.3567C109.928 12.6908 109.416 13.1852 109.06 13.7874C108.704 14.3896 108.518 15.077 108.521 15.7765C108.525 16.476 108.718 17.1615 109.08 17.76C109.447 18.3577 109.969 18.8446 110.59 19.1687C111.212 19.4928 111.91 19.6418 112.61 19.6C114.174 19.5714 115.691 19.0578 116.95 18.13V22.28H116.96ZM120.18 2.61H124.76V14.58H124.82L130 8.32H135.18L129.52 14.92L135.6 23.07H130.2L124.81 15.54H124.75V23.04H120.17L120.18 2.61ZM2.86 18.44C2.86 16.9 2.44 16.3 0.87 16.3H0V13.01H0.87C2.44 13.01 2.87 12.41 2.87 10.88V4.88C2.86 2 4.51 0 8.04 0C8.74 0 9.43 0.06 10.11 0.18V3.38C9.73568 3.29754 9.35329 3.25729 8.97 3.26C7.64 3.26 7.07 3.83 7.07 5.42V10.7C7.07 12.91 6.57 14.11 5 14.63V14.69C6.57 15.19 7.07 16.39 7.07 18.62V23.9C7.07 25.49 7.64 26.06 8.97 26.06C9.36 26.06 9.74 26.02 10.11 25.94V29.14C9.43 29.26 8.73 29.32 8.04 29.32C4.48 29.32 2.85 27.32 2.85 24.44V18.44H2.86ZM139.91 18.62C139.91 16.41 140.41 15.21 141.98 14.69V14.63C140.42 14.12 139.91 12.92 139.91 10.7V5.42C139.91 3.82 139.34 3.26 138.01 3.26C137.63 3.26 137.25 3.3 136.87 3.38V0.18C137.56 0.06 138.25 0 138.94 0C142.5 0 144.13 2 144.13 4.88V10.88C144.13 12.41 144.56 13.01 146.12 13.01H146.99V16.31H146.12C144.56 16.31 144.13 16.91 144.13 18.45V24.47C144.13 27.34 142.47 29.35 138.95 29.35C138.25 29.35 137.55 29.29 136.87 29.17V25.97C137.24 26.05 137.63 26.09 138.01 26.09C139.34 26.09 139.91 25.52 139.91 23.93V18.62Z" fill="black"/>
</svg>
