<?xml version="1.0" encoding="utf-8"?>
<svg version="1.1" id="Layer_1" xmlns="http://www.w3.org/2000/svg" x="0px" y="0px"
     viewBox="0 0 400 61" style="enable-background:new 0 0 400 61;" xml:space="preserve">
<style type="text/css">
	.st0{fill:#EF3340;}
	.st1{fill:#000000;}
</style>
  <path id="Server_2" class="st0" d="M46.7,38.4H8.2c-2,0-2.8,0.7-2.8,2.6v5.7c0,1.9,0.8,2.7,2.8,2.7h38.5c2,0,2.8-0.8,2.8-2.7V41
	C49.5,39.1,48.6,38.4,46.7,38.4z M38.4,45.6c-0.9,0-1.7-0.8-1.7-1.7c0-0.9,0.8-1.7,1.7-1.7c0.9,0,1.7,0.8,1.7,1.7
	C40.1,44.8,39.4,45.6,38.4,45.6z M43.8,45.6c-0.9,0-1.7-0.8-1.7-1.7c0-0.9,0.8-1.7,1.7-1.7s1.7,0.8,1.7,1.7
	C45.5,44.8,44.8,45.6,43.8,45.6z"/>
  <path id="Server_1" class="st0" d="M52.1,10.8H13.6c-2,0-2.7,0.9-2.7,2.8v5.7c0,1.9,0.8,2.5,2.7,2.5h38.5c2,0,2.5-0.6,2.5-2.5v-5.7
	C54.6,11.7,54.1,10.8,52.1,10.8z M43.9,18.1c-0.9,0-1.7-0.8-1.7-1.7c0-0.9,0.8-1.7,1.7-1.7s1.7,0.8,1.7,1.7
	C45.5,17.4,44.8,18.1,43.9,18.1z M49.2,18.1c-0.9,0-1.7-0.8-1.7-1.7c0-0.9,0.8-1.7,1.7-1.7c0.9,0,1.7,0.8,1.7,1.7
	C50.9,17.4,50.2,18.1,49.2,18.1z"/>
  <path id="Symbol" class="st0" d="M51.4,27.4H10.9c-4.3,0-5.4-1-5.4-5.3V10.8c0-4.3,1-5.3,5.4-5.3h44l0,0c2,0,2.7-0.8,2.7-2.7l0,0
	l0,0V0l0,0H8.9C2.4,0,0,4.4,0,9.8V23c0,5.4,2.3,9.8,8.9,9.8h40.5c4.3,0,5.4,1,5.4,5.3v11.3c0,4.3-1,5.3-5.4,5.3h-44l0,0
	c-2,0-2.7,0.8-2.7,2.7l0,0l0,0v2.7l0,0h48.6c6.5,0,8.9-4.4,8.9-9.8V37.2C60.2,31.8,57.9,27.4,51.4,27.4z"/>
  <path id="s" class="st1" d="M104.4,20c-3.8-1.6-6.7-1.9-9-1.9c-1.6,0-3.3,0.1-4.5,1.2c-1,0.8-1.3,1.9-1.3,2.9c0,0.7,0.1,1.9,1.2,2.8
	c0.8,0.7,3,1.4,3.9,1.6l3.7,1c2.2,0.6,4.7,1.4,6.5,3.2c1.6,1.8,1.9,3.9,1.9,5.5c0,4.1-1.7,6.5-3.4,7.7c-1.4,1-4,2.3-9,2.3
	c-4,0-7.5-0.7-11.1-2.4l1.4-4.2c3.3,1.6,7,2.4,10,2.4c1.6,0,3.4-0.3,4.5-1.2c0.6-0.5,1.8-1.6,1.8-3.8c0-1.4-0.3-2.6-1.4-3.5
	c-1-0.8-2.9-1.5-3.8-1.7l-3.7-1c-2.4-0.7-4.6-1.6-6-2.9c-1.6-1.4-2.1-3.2-2.1-5.1c0-3.4,1.5-5.7,2.9-6.7c2.5-2,6.1-2.2,8.5-2.2
	c3.5,0,6.6,0.5,9.9,1.9L104.4,20z"/>
  <path id="e" class="st1" d="M118.1,32.3c0,1.2,0.2,5.3,2.4,7.8c1.7,2,3.8,2.3,5.9,2.3c1.9,0,5-0.2,9.6-2.4l1.4,4.2
	c-3.9,1.9-7.8,2.4-11.6,2.4c-2.4,0-6.6-0.3-9.6-3.1c-3.6-3.4-3.9-8.7-3.9-13.2c0-3.4,0.3-9.5,4-13c3.1-3,8-3.2,10.3-3.2
	c2.3,0,6.5,0.3,9.3,3.1c2.9,3,3.4,8.5,3.4,12.3L118.1,32.3z M133.5,26.1c0-2-0.6-4.3-1.6-5.7c-1.6-2.1-3.8-2.3-5.4-2.3
	c-1.2,0-4.3,0-6.3,2.3c-1.5,1.6-2.2,5.4-2.2,7.6L133.5,26.1z"/>
  <path id="r" class="st1" d="M152.1,14.1v4.4c1.2-1.4,2.5-2.2,4.1-3c2.1-1,4.2-1.5,6.6-1.6l0.7,4.9c-2,0-5,0.3-7,1.3
	c-1.5,0.7-3.2,2-4.4,4.1v21.6h-5.4V14.7L152.1,14.1z"/>
  <path id="v" class="st1" d="M191.5,14.7h5.1l-11.8,31.1h-5.1l-11.8-31.1l6-0.6l9,24.9L191.5,14.7z"/>
  <path id="e_1_" class="st1" d="M205.2,32.3c0,1.2,0.2,5.3,2.4,7.8c1.7,2,3.8,2.3,5.9,2.3c1.9,0,5-0.2,9.6-2.4l1.4,4.2
	c-3.9,1.9-7.8,2.4-11.6,2.4c-2.4,0-6.6-0.3-9.6-3.1c-3.6-3.4-3.9-8.7-3.9-13.2c0-3.4,0.3-9.5,4-13c3.1-3,8-3.2,10.3-3.2
	c2.3,0,6.5,0.3,9.3,3.1c2.9,3,3.4,8.5,3.4,12.3L205.2,32.3z M220.7,26.1c0-2-0.6-4.3-1.6-5.7c-1.6-2.1-3.8-2.3-5.4-2.3
	c-1.2,0-4.3,0-6.3,2.3c-1.5,1.6-2.2,5.4-2.2,7.6L220.7,26.1z"/>
  <path id="r_1_" class="st1" d="M239.2,14.1v4.4c1.2-1.4,2.5-2.2,4.1-3c2.1-1,4.2-1.5,6.6-1.6l0.7,4.9c-2,0-5,0.3-7,1.3
	c-1.5,0.7-3.2,2-4.4,4.1v21.6h-5.4V14.7L239.2,14.1z"/>
  <path id="s_1_" class="st1" d="M276.1,20c-3.8-1.6-6.7-1.9-9-1.9c-1.6,0-3.3,0.1-4.5,1.2c-1,0.8-1.3,1.9-1.3,2.9
	c0,0.7,0.1,1.9,1.2,2.8c0.8,0.7,3,1.4,3.9,1.6l3.7,1c2.2,0.6,4.7,1.4,6.5,3.2c1.6,1.8,1.9,3.9,1.9,5.5c0,4.1-1.7,6.5-3.4,7.7
	c-1.4,1-4,2.3-9,2.3c-4,0-7.5-0.7-11.1-2.4l1.4-4.2c3.3,1.6,7,2.4,10,2.4c1.6,0,3.4-0.3,4.5-1.2c0.6-0.5,1.8-1.6,1.8-3.8
	c0-1.4-0.3-2.6-1.4-3.5c-1-0.8-2.9-1.5-3.8-1.7l-3.7-1c-2.4-0.7-4.6-1.6-6-2.9c-1.6-1.4-2.1-3.2-2.1-5.1c0-3.4,1.5-5.7,2.9-6.7
	c2.5-2,6.1-2.2,8.5-2.2c3.5,0,6.6,0.5,9.9,1.9L276.1,20z"/>
  <path id="_x2E_" class="st1" d="M287.2,38.4c2.3,0,4.1,1.8,4.1,4.1c0,2.3-1.8,4.1-4.1,4.1s-4.1-1.8-4.1-4.1
	C283.2,40.2,284.9,38.4,287.2,38.4z"/>
  <path id="c" class="st1" d="M318.1,20c-2.4-1.2-5.2-1.9-7.9-1.9c-3.4,0-5.3,1.2-6.4,2.3c-2,2.1-2.4,5.9-2.4,9.8
	c0,4.1,0.5,7.6,2.4,9.8c1.7,2,3.8,2.3,5.9,2.3c1.5,0,4.4-0.2,8.5-2.4l1.4,4.2c-3.5,1.9-7,2.4-10.4,2.4c-2.4,0-6.7-0.3-9.6-3.1
	c-3.6-3.4-3.9-8.7-3.9-13.2c0-4.4,0.3-9.9,3.9-13.2c2.4-2.2,6.2-3.1,10.5-3.1c3.4,0,6.1,0.6,8.8,1.9L318.1,20z"/>
  <path id="o" class="st1" d="M327.4,17c3.1-2.9,7.7-3.1,10.5-3.1c2.8,0,7.3,0.1,10.5,3.1c3.5,3.3,3.9,9,3.9,13.2s-0.3,10-3.9,13.2
	c-3.1,2.9-7.7,3.1-10.5,3.1c-2.8,0-7.3-0.1-10.5-3.1c-3.5-3.3-3.9-9-3.9-13.2C323.5,26,323.8,20.3,327.4,17z M331.3,40.1
	c1.7,2.1,4.3,2.3,6.5,2.3c2.2,0,4.7-0.2,6.5-2.3c2.2-2.6,2.3-8.1,2.3-9.8c0-1.6-0.1-7.3-2.3-9.8c-1.7-2.1-4.3-2.3-6.5-2.3
	c-2.2,0-4.7,0.2-6.5,2.3c-2.2,2.6-2.3,8.1-2.3,9.8C329,31.9,329.2,37.5,331.3,40.1z"/>
  <path id="m" class="st1" d="M363.1,14.1v4.1c3.1-3.7,6.9-4.2,9.6-4.2c2,0,5.9,0.2,7.7,4.4c1.3-1.8,4-4.4,9.6-4.4
	c4.1,0,6.3,1.4,7.5,2.6c2.3,2.4,2.4,6,2.4,9.2v20h-5.4V25.9c0-3.1-0.3-4.7-1-5.7c-0.7-1.2-2.2-2.1-4.1-2.1c-2.7,0-6.3,1.9-7.9,5.7
	v21.9h-5.4V25.8c0-2.2-0.2-4.2-1-5.6c-0.7-1.2-2.2-2.2-4.2-2.2c-2.9,0-6.1,2.1-7.9,5.7v21.9h-5.4V14.6L363.1,14.1z"/>
</svg>
