<svg xmlns="http://www.w3.org/2000/svg" viewBox="0 0 263.42 67.35">
<defs>
<style>.cls-1{fill:#fff;}</style>
</defs>
<title>linaria-logo</title>
<g id="Warstwa_2" data-name="Warstwa 2">
<g id="logo">
<path class="cls-1" d="M103,49a6,6,0,0,0,2.91-1l.81,4a9.09,9.09,0,0,1-5,1.62,6,6,0,0,1-4.63-2,7.94,7.94,0,0,1-1.78-5.52V13.42h5V45.53Q100.3,49,103,49Z"/>
<path class="cls-1" d="M117.08,14.44a3.19,3.19,0,0,1,.89,2.32,3.19,3.19,0,0,1-.89,2.32,3.19,3.19,0,0,1-4.47,0,3.19,3.19,0,0,1-.89-2.32,3.19,3.19,0,0,1,.89-2.32,3.19,3.19,0,0,1,4.47,0Zm-4.71,10.45h5v28.5h-5Z"/>
<path class="cls-1" d="M151.37,27.67q2.85,2.94,2.86,8.11V53.39h-5V37.12a7,7,0,0,0-7.6-7.65,8.6,8.6,0,0,0-6.22,2.45,9.62,9.62,0,0,0-2.72,6.22V53.39h-5V24.89h5v6q2.85-6.09,10.83-6.2A10.46,10.46,0,0,1,151.37,27.67Z"/>
<path class="cls-1" d="M190.21,24.89v28.5h-5V47.84a11.28,11.28,0,0,1-4.31,4.31,12.69,12.69,0,0,1-6.3,1.51,13.6,13.6,0,0,1-7.14-1.86,12.76,12.76,0,0,1-4.82-5.17,16.15,16.15,0,0,1-1.72-7.57,15.71,15.71,0,0,1,1.72-7.46,12.61,12.61,0,0,1,4.85-5.09,13.8,13.8,0,0,1,7.11-1.83,12.88,12.88,0,0,1,6.3,1.48,11.1,11.1,0,0,1,4.31,4.28V24.89Zm-8,22a10,10,0,0,0,3-6.55V38.14a10.13,10.13,0,0,0-3-6.57,9.1,9.1,0,0,0-6.6-2.53,9.44,9.44,0,0,0-5,1.32A9.27,9.27,0,0,0,167.2,34a11.64,11.64,0,0,0,0,10.45,9.07,9.07,0,0,0,3.42,3.61,9.59,9.59,0,0,0,5,1.29A9.15,9.15,0,0,0,182.21,46.84Z"/>
<path class="cls-1" d="M209.49,26.37a11.86,11.86,0,0,1,6.14-1.64v4.85a9.16,9.16,0,0,0-10.13,8.78v15h-5V24.89h5V31A10.31,10.31,0,0,1,209.49,26.37Z"/>
<path class="cls-1" d="M226.33,14.44a3.19,3.19,0,0,1,.89,2.32,3.19,3.19,0,0,1-.89,2.32,3.19,3.19,0,0,1-4.47,0,3.19,3.19,0,0,1-.89-2.32,3.19,3.19,0,0,1,.89-2.32,3.19,3.19,0,0,1,4.47,0Zm-4.71,10.45h5v28.5h-5Z"/>
<path class="cls-1" d="M263.42,24.89v28.5h-5V47.84a11.28,11.28,0,0,1-4.31,4.31,12.69,12.69,0,0,1-6.3,1.51,13.6,13.6,0,0,1-7.14-1.86,12.76,12.76,0,0,1-4.82-5.17,16.15,16.15,0,0,1-1.72-7.57,15.71,15.71,0,0,1,1.72-7.46,12.61,12.61,0,0,1,4.85-5.09,13.8,13.8,0,0,1,7.11-1.83,12.88,12.88,0,0,1,6.3,1.48,11.1,11.1,0,0,1,4.31,4.28V24.89Zm-8,22a10,10,0,0,0,3-6.55V38.14a10.13,10.13,0,0,0-3-6.57,9.1,9.1,0,0,0-6.6-2.53,9.44,9.44,0,0,0-5,1.32A9.27,9.27,0,0,0,240.41,34a11.64,11.64,0,0,0,0,10.45,9.07,9.07,0,0,0,3.42,3.61,9.59,9.59,0,0,0,5,1.29A9.15,9.15,0,0,0,255.42,46.84Z"/><path class="cls-1" d="M23.21,48.37H16.35a11.09,11.09,0,0,1,0-22.18,2.63,2.63,0,1,0,0-5.26,16.35,16.35,0,0,0,0,32.7h6.86A11.1,11.1,0,0,1,34.3,64.72a2.63,2.63,0,0,0,5.26,0A16.37,16.37,0,0,0,23.21,48.37Z"/><path class="cls-1" d="M57.51,20.93a16.39,16.39,0,0,0-7.6,1.87A64.43,64.43,0,0,1,38,27.71a7.33,7.33,0,0,1-3.71.14A11.44,11.44,0,0,1,36.65,5.27,11.44,11.44,0,0,1,48.37,16.7a2.63,2.63,0,0,0,5.26,0A16.7,16.7,0,1,0,23.79,27a16.76,16.76,0,0,0,9.34,6,12.6,12.6,0,0,0,6.39-.22,69.61,69.61,0,0,0,12.84-5.3,11,11,0,0,1,5.15-1.26,11.09,11.09,0,1,1,0,22.18H50.65a16.35,16.35,0,0,0-8.18,2.19,2.63,2.63,0,1,0,2.63,4.56,11.08,11.08,0,0,1,5.54-1.48h6.86a16.35,16.35,0,1,0,0-32.7Z"/></g></g></svg>
